<?xml version="1.0" encoding="UTF-8" standalone="no"?>
<svg
   xmlns:dc="http://purl.org/dc/elements/1.1/"
   xmlns:cc="http://creativecommons.org/ns#"
   xmlns:rdf="http://www.w3.org/1999/02/22-rdf-syntax-ns#"
   xmlns:svg="http://www.w3.org/2000/svg"
   xmlns="http://www.w3.org/2000/svg"
   xmlns:sodipodi="http://sodipodi.sourceforge.net/DTD/sodipodi-0.dtd"
   xmlns:inkscape="http://www.inkscape.org/namespaces/inkscape"
   version="1.1"
   id="svg12180"
   inkscape:version="1.0 (4035a4fb49, 2020-05-01)"
   sodipodi:docname="parrotCowboy.svg"
   x="0px"
   y="0px"
   viewBox="0 0 1336.4 1710"
   style="enable-background:new 0 0 1336.4 1710;"
   xml:space="preserve"><metadata
   id="metadata122"><rdf:RDF><cc:Work
       rdf:about=""><dc:format>image/svg+xml</dc:format><dc:type
         rdf:resource="http://purl.org/dc/dcmitype/StillImage" /></cc:Work></rdf:RDF></metadata><defs
   id="defs120" />
<style
   type="text/css"
   id="style67">
	.st0{fill:#84C6F7;}
	.st1{fill:#B5DEF7;}
	.st2{fill:#1776CC;}
	.st3{fill:#114559;}
	.st4{fill:none;stroke:#84C6F7;stroke-width:3;stroke-miterlimit:28.3465;}
	.st5{fill:#B5DEF7;stroke:#114559;stroke-width:34.0157;stroke-miterlimit:19.8425;}
	.st6{fill:#0C333F;}
	.st7{fill:none;stroke:#B5DEF7;stroke-width:34.0157;stroke-linecap:round;stroke-linejoin:round;stroke-miterlimit:19.8425;}
</style>
<sodipodi:namedview
   inkscape:snap-bbox="false"
   bordercolor="#666666"
   borderopacity="1.0"
   fit-margin-bottom="0"
   fit-margin-left="0"
   fit-margin-right="0"
   fit-margin-top="0"
   id="base"
   inkscape:current-layer="svg12180"
   inkscape:cx="-147.12452"
   inkscape:cy="782.98808"
   inkscape:document-units="mm"
   inkscape:pageopacity="0.0"
   inkscape:pageshadow="2"
   inkscape:snap-global="false"
   inkscape:window-height="1321"
   inkscape:window-maximized="1"
   inkscape:window-width="2400"
   inkscape:window-x="3191"
   inkscape:window-y="-9"
   inkscape:zoom="0.31103514"
   pagecolor="#ffffff"
   showgrid="false"
   inkscape:document-rotation="0"
   inkscape:snap-intersection-paths="false"
   inkscape:object-paths="true"
   inkscape:snap-smooth-nodes="false"
   inkscape:object-nodes="true">
	</sodipodi:namedview>
<g
   id="flowRoot21990"
   transform="matrix(0.26147033,-0.04046735,0.04046735,0.26147033,442.57197,-367.58641)"
   inkscape:transform-center-x="1.4596334"
   inkscape:transform-center-y="-0.727438">
</g>
















































<path
   d="m 955.99999,1571.4 c -1.9,-7.1 -5.5,-10.3 -14.5,-12.9 l -4.8,-0.8 c -1.5,0 0,0 1.9,-1.5 9.3,-2 16.3,-9.8 17.4,-19.3 0.6,-4.7 0.6,-9.5 0,-14.2 0.5,-6.4 -0.2,-12.8 -1.9,-18.9 -3.2,-11.5 -11.8,-17 -28.1,-18.9 -7.1,-0.8 -11.7,-0.8 -62.9,-0.8 h -51.5 l 1.9,60.2 v 60.6 h 35.5 v -32.8 h 20.5 c 12.9,0 24.4,0 36.2,0.8 4.4,0.2 8.5,1.9 11.8,4.8 3.2,4 4.4,7.5 4.4,20.5 v 7.1 h 35 v -12.9 c 0.6,-7.1 0.3,-14.1 -0.9,-21 z m -34.6,-33.9 c -1.7,4.2 -4.8,5.9 -12.9,7.1 -1.5,0 -12.9,0 -30.4,0 h -27.7 v -34.2 h 24.4 c 31.4,0 35.4,0.8 36.5,0.8 4.5,0 8.5,2.8 9.9,7.1 1,6.3 1,12.8 0.2,19.2 z"
   class="st0"
   inkscape:connector-curvature="0"
   id="path5608"
   style="fill:#c87137;fill-opacity:1" /><path
   d="m 721.36882,1673.7865 v 35.1 h 20.6 v -19.3 h 11.79999 c 5,-0.3 10,-0.3 15.1,0 2.5,0.1 5,1.1 6.9,2.7 1.8,2.3 2.4,4.4 2.4,11.8 v 4.1 h 20.3 v -6.7 c 0.3,-4.3 0,-8.6 -0.9,-12.9 -1.2,-4.1 -3.2,-5.9 -8.5,-7.1 h -2.7 c -0.9,0 0,0 1.2,-1 5.4,-1.2 9.4,-5.6 10,-11.1 0.3,-2.7 0.3,-5.5 0,-8.2 0.3,-3.7 -0.1,-7.4 -1.2,-10.9 -1.8,-6.6 -6.8,-9.8 -16.1,-10.9 -10.2,-0.8 -20.4,-0.8 -30.59999,0 h -29.4 l 1,34.9 z m 50.49999,-19.3 c 2.6,-0.1 5,1.6 5.8,4.1 0.4,3.6 0.4,7.3 0,10.9 -0.9,2.4 -2.8,3.3 -7.3,4.1 h -27.89999 v -19.7 h 14.19999 c 18.4,0.1 14.5,0.6 15.2,0.6 z"
   class="st0"
   inkscape:connector-curvature="0"
   id="path5610"
   style="fill:#c87137;fill-opacity:1" /><path
   d="m 684.19999,1485.7 c -0.8,1.7 -64.29999,118.5 -64.29999,119 0,0.5 0.8,0 18.89999,0 h 19.3 l 5.5,-10.7 5.5,-10.7 h 75.9 l 11.5,21.8 h 38.6 l -1.5,-2.8 c -0.8,-1.9 -15.4,-28.7 -32.7,-60.6 l -31.5,-57.1 h -44.4 l -0.8,0.8 z m 35.4,48.9 12.9,24.1 h -50.6 l 12.9,-24.1 c 3.9,-8.2 8.2,-16.3 12.9,-24.1 -0.1,0 4.8,11.1 11.9,24.1 z"
   class="st0"
   inkscape:connector-curvature="0"
   id="path5612"
   style="fill:#c87137;fill-opacity:1" /><polygon
   points="595.4,1532.1 505.2,1532.1 505.2,1511.7 600.2,1511.7 600.2,1484.9 469.8,1484.9 469.8,1545.2 469.8,1605.5 505.2,1605.5 505.2,1557.7 595.4,1557.7 "
   class="st0"
   id="polygon5620"
   style="fill:#c87137;fill-opacity:1"
   transform="translate(9.7026935e-7,5.9727088e-5)" /><rect
   height="26.799999"
   width="130.39999"
   class="st0"
   y="1578.7"
   x="469.79999"
   id="rect5622"
   style="fill:#c87137;fill-opacity:1" /><rect
   height="60.599998"
   width="35.599998"
   class="st0"
   y="1544.6"
   x="349.39999"
   id="rect5624"
   style="fill:#c87137;fill-opacity:1" /><path
   d="m 379.1,1533.5 -40.7,-48.4 c 0,0 -48.9,0 -48.4,0 0.5,0 59.3,64.4 59.3,64.4 l 29.6,-4.9 z"
   class="st0"
   inkscape:connector-curvature="0"
   id="path5626"
   style="fill:#c87137;fill-opacity:1" /><rect
   height="16.200001"
   width="72.099998"
   class="st0"
   y="1639.6"
   x="429.60001"
   id="rect5628"
   style="fill:#c87137;fill-opacity:1" /><rect
   height="60.599998"
   width="35.599998"
   class="st0"
   y="1544.6"
   x="355.29999"
   id="rect5640"
   style="fill:#c87137;fill-opacity:1" /><path
   d="m 361.2,1533.5 40.7,-48.4 c 0,0 48.9,0 48.4,0 -0.5,0 -59.3,64.4 -59.3,64.4 l -29.6,-4.9 z"
   class="st0"
   inkscape:connector-curvature="0"
   id="path5642"
   style="fill:#c87137;fill-opacity:1" /><circle
   style="fill:#502d16;fill-opacity:1;stroke:none;stroke-width:1.15214;stroke-linecap:round;stroke-linejoin:round;paint-order:markers fill stroke"
   id="path665"
   cx="305.5614"
   cy="550.38959"
   r="171.05112" /><circle
   r="171.05112"
   cy="543.31006"
   cx="994.37628"
   id="circle667"
   style="fill:#502d16;fill-opacity:1;stroke:none;stroke-width:1.15214;stroke-linecap:round;stroke-linejoin:round;paint-order:markers fill stroke" /><path
   style="fill:#502d16;fill-opacity:1;stroke:none;stroke-width:1.15033px;stroke-linecap:butt;stroke-linejoin:miter;stroke-opacity:1"
   d="m 306.33861,421.57531 -9.35973,-42.02138 c 0,0 184.57155,-6.52016 290.43832,99.34663 105.86677,105.86676 -171.05112,64.72203 -171.05112,64.72203 l -67.49585,-39.75783 z"
   id="path725" /><path
   id="path727"
   d="m 988.93186,414.34196 9.35973,-42.02138 c 0,0 -184.57156,-6.52016 -290.43832,99.34662 -105.86677,105.86676 171.05112,64.72204 171.05112,64.72204 l 67.49584,-39.75783 z"
   style="fill:#502d16;fill-opacity:1;stroke:none;stroke-width:1.15033px;stroke-linecap:butt;stroke-linejoin:miter;stroke-opacity:1" /><path
   style="fill:#502d16;fill-opacity:1;stroke:none;stroke-width:1.15033px;stroke-linecap:butt;stroke-linejoin:miter;stroke-opacity:1"
   d="m 357.22611,461.4607 c 0,0 39.53874,-209.15933 121.08822,-256.24194 81.54946,-47.08262 187.7283,-17.93459 245.01916,-33.28563 57.29086,-15.35104 103.24678,-7.46644 129.44409,37.90863 26.19731,45.37507 82.04902,235.74955 82.04902,235.74955 l -63.67723,24.10629 -156.49785,33.23 -288.62122,-33.09105 z"
   id="path756" /><path
   id="path669"
   style="fill:#502d16;stroke-width:0.912154"
   d="M 383.38757,653.39255 A 514.23218,104.48625 0 0 1 135.07055,563.96047 514.23218,104.48625 0 0 1 649.30088,459.47399 514.23218,104.48625 0 0 1 1163.5334,563.96047 514.23218,104.48625 0 0 1 1043.3282,631.09806 l -36.2219,-9.16757 H 507.69545 Z" /><path
   id="ellipse758"
   style="fill:#28170b;stroke-width:1.33439"
   d="m 826.12923,512.47782 a 171.05112,171.05112 0 0 0 -2.80394,30.83206 171.05112,171.05112 0 0 0 171.05141,171.05141 171.05112,171.05112 0 0 0 57.5548,-9.97555 521.94188,172.32414 0 0 0 28.2191,-13.08504 171.05112,171.05112 0 0 0 66.1554,-69.40194 504.37448,166.52408 0 0 0 -320.17677,-109.42094 z m -353.02872,3.43527 a 504.37448,166.52408 0 0 0 -308.91613,130.76278 171.05112,171.05112 0 0 0 69.4334,58.90065 521.94188,172.32414 0 0 0 20.18699,7.84562 171.05112,171.05112 0 0 0 51.75601,8.01864 171.05112,171.05112 0 0 0 171.0514,-171.0514 171.05112,171.05112 0 0 0 -3.51167,-34.47629 z" /><path
   id="path5648"
   inkscape:connector-curvature="0"
   class="st2"
   d="m 646.8999,490.80041 c -2,0 -3.99999,0.1 -5.99999,0.2 h -4.6 -1 H 622.4 c -46.5,3.2 -91.2,19.6 -128.7,47.40001 -36.4,27.4 -67,61.7 -90.1,101 -29.7,51.2 -51.6,106.5 -64.8,164.2 -9.1,17.8 -16.8,35.4 -14.9,41 4.2,12.6 21.1,71.59998 35.8,79.99997 14.7,8.4 127.4,35.8 134.8,33.7 7.4,-2.1 187.3999,-39.99999 186.3999,-50.59998 -0.4,-4.5 -24.8,-29.89999 -51.19999,-56.59999 11.6,0 23.19999,-0.2 34.69999,-0.7 h 7 c 14.5,0 29.1,-1.3 43.5,-2.2 h 1.6 4 4.4 c 7.1,0 14,-1.3 21.1,-1.9 l 20.5,-0.2 c 9.3,-0.9 18.4,-2.2 27.5,-3.3 7.1,-0.9 14.2,-1.7 21.1,-2.7 h 2.7 l 18,-3 c 14.2,-2.3 28.2,-4.8 41.9,-7.5 l 14.3,-2.8 15.5,-3.2 c 14.8,-3.2 29.3,-6.8 43.6,-10.6 14.3,-3.7 27.9,-7.7 41.4,-11.8 v -1 c -14.7,-34 -31.8,-66.9 -51.1,-98.5 -18.3,-31.3 -25.7,-56.5 -38.6,-80.3 -12.4,-23.9 -30,-44.8 -51.5,-61.1 -16.7,-13.4 -34.6,-25.3 -53.5,-35.40001 -46.7,-23.8 -98.6,-35.5 -150.9,-34.1 z m -17.79999,13.3 c 3.5,4.8 6.6,10.2 9.5,15.6 h -0.6 c -2.9,-5.5 -6,-10.9 -8.9,-15.6 z m 96.39999,37.40001 2.2,1 h -2.1 c 0.6,0.4 1.2,0.9 1.8,1.3 -0.6,-0.4 -1.3,-0.9 -1.9,-1.3 v -0.5 l -3.7,0.7 h -3 z m -182.0999,5.8 11.9,0.8 h -1.4 -2.6 z m 13.3,1.4 17.6,0.7 h -4.2 -3.6 z m 109.4999,34.5 c 3.2,11.1 6,22.4 8.1,33.8 -2.2,-11.4 -4.9,-22.7 -8.1,-33.8 z m 8.8,37.5 c 2.5,13.1 4.4,26.4 5.5,39.7 l 27.5,-1.8 -4.8,1 h -9.9 l -12.9,0.8 c -1.1,-13.3 -2.9,-26.6 -5.4,-39.7 z m 134.9,23.1 v 1.2 l -4.1,0.8 c -10.2,1.9 -20.5,3.6 -31,5.2 h -2.4 c -11.5,1.7 -23.2,3.2 -35.1,4.5 h -2.7 -6.3 l 9,-0.8 c 12,-1.3 23.7,-2.8 35.1,-4.5 11.4,-1.7 25.7,-4.1 37.5,-6.4 z m -225.3999,18 c 11.6,0.1 23.2,0.7 35.5,0.7 -11.6,0.3 -23.3,0 -35.1,-0.4 z"
   style="fill:#ffe6d5" /><path
   id="path5654"
   inkscape:connector-curvature="0"
   class="st2"
   d="m 897.7999,746.70042 -45.7,87.7 -15.4,2.5 -18,3 h -2.7 c -6.9,1 -14,1.8 -21.1,2.7 l -19.8,2.6 -7.7,0.8 -19.1,1.7 c -7.1,0.6 -14,1.4 -21.1,1.9 h -4.4 -4 -1.5 c -12.9,0.8 -25.7,1.5 -38.6,2.1 h -4.4 c -17.2,0 -34.69999,1 -52.1999,1 h -34.1 -9.7 -1.6 l -22.1,-0.9 h -2.1 -9 -2.3 l -19.4,-1.3 h -6.7 -7.2 c -9.8,-0.8 -19.6,-1.7 -29.2,-2.7 h -3.1 -3.6 l -12.9,-1.5 -11.1,-1.4 -7.2,-0.8 h -3.5 l -5.9,-0.9 -34,-5.2 c -20.6,-3.5 -40.8,-7.3 -60.5,-11.7 -7.6,38.4 -11.9,77.39999 -12.9,116.49997 -1.1,38.19999 8.5,75.89981 27.5,108.99971 l -5.3,-3.1 c 0,0 -4.4,6.6 -12.9,17.5 -35.3,47.4 -76.2,90.3 -121.7,127.9 -39,32.1 -69.7,73 -89.7,119.4 -10.8,24.8 -18.8,50.7 -24,77.2 h 1009.1991 c 1.2,-25.1 -0.7,-50.3 -5.8,-74.9 -6.5,-35.8 -16.1,-71 -28.5991,-105.1 -34.1,-95 -56.1,-110.9 -58.3,-163.1 -0.4,-12.9 -0.1,-25.8 1.2,-38.5999 8.4,-95.3998 0,-152.79978 -23.2001,-208.49978 v 1 c -3.4,1.1 -7.3,2.1 -10.9,3.1 -5.1,-14.4 -10.4,-28.4 -10.4,-28.4 z"
   style="fill:#ffe6d5;fill-opacity:1" /><path
   id="path5656"
   inkscape:connector-curvature="0"
   class="st3"
   d="m 344.2,1046.4001 c -32,43.8 -67.9,84.7 -107.2,122.1 -56.2,51 -129.6,135.8 -136.5,210.5999 -0.5,3.7 -0.5,7.5 0,11.2 h 434.2 l 33.6,-202.0999 c 0,0 -188,-33 -224.1,-141.8 z"
   style="fill:#c87137;fill-opacity:1" /><path
   style="fill:none;stroke:none;stroke-width:3;stroke-miterlimit:28.3465"
   id="path5658"
   inkscape:connector-curvature="0"
   class="st4"
   d="m 582,1189.8001 c -123.9,-11.7 -264.2,-104.9 -260.3,-248.29971 5.4,-202.19997 107.4,-450.49998 318.89991,-450.49998 55.69999,0 127.49999,3.6 210.39999,69.60001 57.8,46.1 56,83.3 90.1,141.6 59.6001,101.4 87.8001,157.8 74.6001,306.59978 -7.7,87.5999 15.8,86.6999 57.1,201.6999 41.2991,114.9 34.3991,180.2 34.3991,180.2 H 98 c 0,0 20.3,-123.9 111.8,-198.3 51.3,-42.1 96.5,-91.1 134.2,-145.7" /><path
   id="path5660"
   inkscape:connector-curvature="0"
   class="st3"
   d="m 1023.7,1095.2001 c -14.5,-33.3 -6.7,-111.19972 -6.7,-111.19972 0,0 -34.2001,106.39972 -95.6001,142.49972 -61.4,36 121.5001,0 150.9001,84.2 1.3,3.9 3.1,7.6 5.3,11.1 -15.3,-43.4 -33.3,-85.6 -53.9,-126.6 z"
   style="fill:#a05a2c;fill-opacity:1" /><ellipse
   id="ellipse5676"
   class="st3"
   cx="844.29999"
   cy="686.7005"
   rx="31.1"
   ry="44.799999"
   style="fill:#28170b;fill-opacity:1" /><ellipse
   id="ellipse5678"
   class="st3"
   cx="521.29999"
   cy="686.7005"
   rx="31.1"
   ry="44.799999"
   style="fill:#28170b;fill-opacity:1" /><path
   style="fill:#ffb380;stroke:#c87137;stroke-width:34.0157;stroke-miterlimit:19.8425;fill-opacity:1"
   id="path5680"
   inkscape:connector-curvature="0"
   sodipodi:nodetypes="csssc"
   class="st5"
   d="m 708.8999,620.40042 c -45.6,0 -96.9999,12.2 -96.9999,80.4 0,84.2 76.5999,308.09978 104.0999,308.09978 34.4,0 56.2,-154.59978 58.5,-181.59978 0.1,-0.2 36.6,-206.8 -65.6,-206.9 z" /><path
   id="path5682"
   inkscape:connector-curvature="0"
   class="st6"
   d="m 210.2,1191.8001 c 0,0 100.5,-107.6 115.8,-145.4 0,0 87.1,88.3 152,114.9 64.8,26.7 -154.2,119.8 -267.8,30.5 z"
   style="fill:#a05a2c;fill-opacity:1" /><path
   style="fill:none;stroke:#e9c6af;stroke-width:34.0157;stroke-linecap:round;stroke-linejoin:round;stroke-miterlimit:19.8425"
   id="path5684"
   inkscape:connector-curvature="0"
   class="st7"
   d="m 344,1046.7001 c -37.8,54.4 -83,103.3 -134.2,145.3 C 118.3,1266.3001 98,1390.3 98,1390.3 h 1009.199 c 0,0 6.9,-64.3999 -34.399,-180.1999 -41.3,-115.8 -64.3,-114 -57.1,-201.6999 12.9,-148.79973 -15.1,-205.09973 -74.6001,-306.59973 -34.1,-58 -32.3,-95.2 -90.1,-141.6 -82.9,-65.30001 -154.7,-69.20001 -210.4,-69.20001 C 429.2,491.00046 327.1,739.30047 321.7,941.50044 317.8,1085.5001 458.1,1178.7001 582,1190.4001" /><path
   id="path1357"
   style="fill:#28170b;fill-opacity:1;stroke-width:0.826782"
   d="m 684.41359,373.17326 c -86.76302,0.0498 -217.05623,23.01485 -291.98311,43.25165 l 65.06095,29.53361 c 0,0 68.7529,38.57442 76.80994,41.84337 8.05703,3.26896 199.47839,5.15853 199.47839,5.15853 l 126.97301,-25.41068 58.21658,-12.34586 14.77979,-41.27495 C 907.71991,395.83407 786.04118,373.17326 685.3845,373.17326 Z"
   sodipodi:nodetypes="cccsccccsc" /><path
   id="path729"
   style="fill:#502d16;fill-opacity:1;stroke:none;stroke-width:1.25903px;stroke-linecap:butt;stroke-linejoin:miter;stroke-opacity:1"
   d="m 453.42143,430.79344 c -78.66608,0.47648 -155.51768,-5.80304 -79.96177,63.33601 95.5296,87.41642 241.30817,95.70629 298.30251,95.3406 56.99271,0.36593 202.77387,-7.92301 298.30476,-95.3406 C 1090.9564,383.50697 786.17539,415.06651 786.17539,415.06651 l -75.72877,40.19875 -38.68445,67.35066 -38.68444,-67.35066 -89.13548,-11.07383 c 0,0 -43.32117,-13.68387 -90.52082,-13.39799 z"
   sodipodi:nodetypes="sscscccccs" /><path
   d="m 310.12456,394.50333 c 0,0 61.19546,102.80528 68.24551,117.75163 7.05006,14.94634 128.36765,51.20244 128.36765,51.20244 l 127.49347,-0.53081 c 0.0137,0.0176 0.14638,0.19353 0.14638,0.19353 l 10.62039,-0.2378 10.62295,-0.0446 c 0,0 0.12802,-0.17937 0.14118,-0.19735 L 878.02438,539.5146 c 0,0 120.31101,-39.46798 126.96132,-54.59643 6.6502,-15.12848 -29.70832,-99.25651 -29.70832,-99.25651 0,0 -226.27937,42.42864 -332.02608,45.82017 -105.79952,-0.57948 -333.12674,-36.97847 -333.12674,-36.97847 z"
   style="fill:#502d16;fill-opacity:1;stroke:none;stroke-width:1.15033px;stroke-linecap:butt;stroke-linejoin:miter;stroke-opacity:1"
   id="path751"
   sodipodi:nodetypes="cscccccccsccc" /><rect
   style="fill:#c87137;fill-opacity:1;stroke-width:1.00431"
   id="rect46"
   x="429.60001"
   y="1639.6"
   class="st0"
   width="21"
   height="70.402832" /><rect
   style="fill:#c87137;fill-opacity:1;stroke-width:0.986016"
   id="rect48"
   x="429.60001"
   y="1669.2963"
   class="st0"
   width="70.097511"
   height="16.200001" /><path
   sodipodi:nodetypes="ccccccsccsccccccccc"
   style="fill:#c87137;fill-opacity:1;stroke-width:0.614024"
   d="m 620.1723,1665.6002 c 0.0614,26.7898 0.0307,26.0469 0.98244,29.9705 2.21662,9.2717 8.84809,13.3059 24.11272,14.6875 5.07798,0.4605 8.48958,0.6139 18.17274,0.5219 11.45769,-0.092 15.74357,-0.3623 21.28207,-1.314 11.20594,-1.9281 16.40672,-6.3122 17.94178,-15.0989 0.61403,-3.5306 0.65086,-4.8078 0.65086,-29.3995 v -25.6519 h -20.5698 v 22.4651 c 0,12.6305 -0.0614,21.4909 -0.15964,22.5838 -0.61403,6.5333 -2.78768,8.9096 -9.25949,9.9718 -0.52192,0.092 -1.91575,0.2518 -3.07011,0.3623 -2.86136,0.2518 -14.48246,0.2518 -17.34995,0 -8.34458,-0.7614 -10.99717,-2.8491 -11.8568,-9.3516 -0.14122,-0.9518 -0.20877,-7.6262 -0.25175,-22.8355 l -0.0614,-23.1959 h -20.60665 z"
   id="path10" /><path
   d="m 580.98098,1649.7485 v 13.3867 c 0,12.6305 -0.0619,21.4911 -0.16016,22.584 -0.61403,6.5333 -2.78795,8.9104 -9.25976,9.9726 -0.52192,0.092 -1.91596,0.2508 -3.07032,0.3613 -2.86136,0.2518 -16.89813,0.2518 -19.76562,0 -8.34457,-0.7614 -10.99584,-2.849 -11.85547,-9.3515 -0.14122,-0.9518 -0.20897,-7.6247 -0.25195,-22.834 l -0.0332,-11.6543 -12.52539,14.7637 -8.05664,3.6133 c 0.0511,22.2663 0.077,22.6433 0.97266,26.3359 2.21662,9.2717 8.84865,13.3059 24.11328,14.6875 5.07798,0.4605 10.90473,0.6135 20.58789,0.5215 11.45769,-0.092 15.74275,-0.3628 21.28125,-1.3145 11.20594,-1.9281 16.40635,-6.3109 17.94141,-15.0976 0.5786,-3.3269 0.64274,-5.3424 0.64843,-26.0606 l -5.98632,-2.6855 -12.52735,-14.7637 z"
   style="fill:#c87137;fill-opacity:1;stroke-width:0.614024"
   id="path10-3-1" /><path
   d="m 580.95599,1700.2279 v -13.3867 c 0,-12.6305 -0.0619,-21.4911 -0.16016,-22.584 -0.61403,-6.5333 -2.78795,-8.9104 -9.25976,-9.9726 -0.52192,-0.092 -1.91595,-0.2508 -3.07031,-0.3613 -2.86136,-0.2518 -16.89813,-0.2518 -19.76562,0 -8.34457,0.7614 -10.99584,2.849 -11.85547,9.3515 -0.14122,0.9518 -0.20897,7.6247 -0.25195,22.834 l -0.0332,11.6543 -12.52539,-14.7637 -8.05664,-3.6133 c 0.0511,-22.2663 0.077,-22.6433 0.97266,-26.3359 2.21662,-9.2717 8.84865,-13.3059 24.11328,-14.6875 5.07798,-0.4605 10.90473,-0.6135 20.58789,-0.5215 11.45768,0.092 15.74274,0.3628 21.28124,1.3145 11.20594,1.9281 16.40635,6.3109 17.94141,15.0976 0.5786,3.3269 0.64274,5.3424 0.64843,26.0606 l -5.98632,2.6855 -12.52735,14.7637 z"
   style="fill:#c87137;fill-opacity:1;stroke-width:0.614024"
   id="path127" /></svg>
